# xmcd
#
# Track frame offsets:
#	150
#	13085
#	28164
#	41331
#	59625
#	75203
#	88017
#	101540
#	118518
#	133784
#	148897
#	164695
#
# Disc length: 2437 seconds
# Revision: 1
# Processed by: cddbd v1.5.2PL0 Copyright (c) Steve Scherf et al.
# Submitted via: dBpowerAMP V12.0
#
DISCID=a109830c
DTITLE=David Ball - Freewheeler
DYEAR=2004
DGENRE=Country
TTITLE0=Louisiana Melody
TTITLE1=Happy With The One I've Got
TTITLE2=Nobody Told Me
TTITLE3=Tell Me With Your Heart
TTITLE4=I Can See Arkansas
TTITLE5=Too Much Blood In My Alcohol Level
TTITLE6=Desert Luau
TTITLE7=Mr. Teardrop
TTITLE8=Yours Truly Blue
TTITLE9=A Girl I Use to Know
TTITLE10=Violence And Lies
TTITLE11=Freewheeler
EXTD=
EXTT0=
EXTT1=
EXTT2=
EXTT3=
EXTT4=
EXTT5=
EXTT6=
EXTT7=
EXTT8=
EXTT9=
EXTT10=
EXTT11=
PLAYORDER=
